<?xml version="1.0" encoding="UTF-8"?>
<!-- Created with EazyDraw for Mac ( http://www.eazydraw.com/ ) -->

<svg
    version="1.1"
    baseProfile="tiny"
    xmlns:dc="http://purl.org/dc/elements/1.1/"
    xmlns:cc="http://creativecommons.org/ns#"
    xmlns:rdf="http://www.w3.org/1999/02/22-rdf-syntax-ns#"
    xmlns:svg="http://www.w3.org/2000/svg"
    xmlns:xlink="http://www.w3.org/1999/xlink"
    xmlns="http://www.w3.org/2000/svg"
    width="497.660390595"
    height="454.325989109"
    viewBox="0, 0, 497.660390595, 454.325989109"
    preserveAspectRatio="none"
   >
   <defs
      />
   <metadata
      >
      <rdf:RDF>
         <cc:Work
             rdf:about="">
            <dc:format>image/svg+xml</dc:format>
            <dc:type rdf:resource="http://purl.org/dc/dcmitype/StillImage"/>
            <dc:title></dc:title>
         </cc:Work>
      </rdf:RDF>
   </metadata>
   <g
      
       style="fill:#000000;stroke:#000000;fill-rule:nonzero;stroke-linecap:square;stroke-linejoin:miter;stroke-width:1;stroke-miterlimit:10">
      <path
          style="stroke:#E0E0E0;stroke-linecap:butt;stroke-width:2;stroke-miterlimit:4"
          id="XMLID_82_"
          d="M496.245577664,348.065818656 C496.245577664,360.172765819 485.772943516,370.93449663 473.9912301,370.93449663 L23.667961757,370.93449663 C11.886248341,370.93449663 1.413614193509,360.172765819 1.413614193509,348.065818656
L1.413614193509,23.8686779735 C1.413614193509,11.761730811 11.886248341,1 23.667961757,1 L473.9912301,1 C485.772943516,1 496.245577664,11.761730811 496.245577664,23.8686779735 L496.245577664,348.065818656
z"/>
      <rect
          style="fill:#E0E0E0;stroke:none"
          id="XMLID_83_"
          x="180.758073339"
          y="371.767791675"
          width="134.835164649"
          height="59.1895194608"/>
      <path
          style="fill:#FFFFFF;stroke:#B0B0B0;stroke-linecap:butt;stroke-miterlimit:4"
          id="XMLID_84_"
          d="M361.411012383,441.719041947 C361.411012383,448.445123704 356.17469531,453.825989109 349.629298967,453.825989109 L148.031091628,453.825989109 C141.485695285,453.825989109 136.249378212,448.445123704 136.249378212,441.719041947
C136.249378212,434.99296019 141.485695285,429.612094785 148.031091628,429.612094785 L350.938378236,429.612094785 C356.17469531,430.957311136 361.411012383,436.338176541 361.411012383,441.719041947 z"/>
      <path
          style="fill:#FFFFFF;stroke:#E0E0E0;stroke-linecap:butt;stroke-width:2;stroke-miterlimit:4"
          id="XMLID_85_"
          d="M496.246177033,348.899113702 L496.246177033,278.94786343 L1.414213562373,278.94786343 L1.414213562373,348.899113702 C1.414213562373,361.006060864 11.8868477099,371.767791675 23.6685611259,371.767791675
L473.991829469,371.767791675 C485.773542885,371.767791675 496.246177033,361.006060864 496.246177033,348.899113702 z"/>
      <path
          style="fill:#C0C0C0;stroke:none"
          id="XMLID_88_"
          d="M248.830195298,358.315628161 C231.812164808,358.315628161 218.721372123,344.863464648 218.721372123,327.37565208 C218.721372123,309.887839512 231.812164808,296.435675998 248.830195298,296.435675998 C265.848225787,296.435675998 278.939018472,309.887839512 278.939018472,327.37565208
C278.939018472,343.518248296 265.848225787,358.315628161 248.830195298,358.315628161 z M248.830195298,311.233055863 C240.975719687,311.233055863 234.430323345,317.95913762 234.430323345,326.030435728 C234.430323345,334.101733837 240.975719687,340.827815593 248.830195298,340.827815593
C256.684670908,340.827815593 263.23006725,334.101733837 263.23006725,326.030435728 C263.23006725,317.95913762 256.684670908,311.233055863 248.830195298,311.233055863 z"/>
   </g>
</svg>
